:SAMPLES-PER-SECOND 30
:FULLY-SPECIFIED
:DEGREES
1501
root  8.04917 34.3647 13.1193 -21.4544 81.0992 -25.5235
RightUpLeg  -44.1348 -23.9493 -5.19053
RightLeg  71.0387 3.40002 10.2204
RightFoot  -8.56536 -0.500988 17.2377
RightToes  0.000481921 0.542163 -0.142578
Spine  39.3967 0.549371 3.46327
Spine1  -8.905 1.86325 -1.20703
HEad  -26.6305 0.555919 -3.48087
LeftShoulder1  7.84608 -13.4087 -40.1371
LeftArm  2.57576 -6.15483 -39.9909
LeftForeArm  -176.233 -59.3372 -164.45
LeftHand  -0.25398 0.0180481 5.50724
RightShoulder  5.19068 10.6808 30.6371
RightArm  3.38968 1.14888 43.7006
RightForeArm  163.012 62.3836 160.441
RightHand  -1.60017 4.5701 -18.8437
LeftUpLeg  -43.055 22.6438 5.56112
LeftLeg  62.2885 4.02365 8.90292
LeftFoot  -19.1693 -0.262536 -5.51101
LeftToes  1.06245e-005 4.65868e-005 -8.65517e-006
1502
root  8.01316 34.3894 13.493 -23.0547 80.8041 -26.9807
RightUpLeg  -43.0919 -21.6088 -7.2392
RightLeg  68.0938 -0.937563 -3.10841
RightFoot  -11.2293 -0.0776352 8.838
RightToes  0.000481921 0.542163 -0.142578
Spine  39.6903 0.460048 4.39186
Spine1  -8.82909 1.96758 -0.993327
HEad  -26.8196 0.793039 -2.98615
LeftShoulder1  7.83218 -13.451 -39.9499
LeftArm  2.55387 -6.39369 -39.9323
LeftForeArm  -176.328 -59.2844 -164.473
LeftHand  -0.25398 0.0180481 5.50724
RightShoulder  5.16046 10.6701 30.449
RightArm  3.18671 1.7921 43.6919
RightForeArm  163.247 62.4586 160.405
RightHand  -1.58943 4.59425 -18.6784
LeftUpLeg  -42.715 22.1526 6.80635
LeftLeg  62.1055 4.24973 9.28135
LeftFoot  -18.3233 -0.244792 -5.80366
LeftToes  1.06245e-005 4.65868e-005 -8.65517e-006
1503
root  7.97717 34.3101 13.9552 -21.548 80.6098 -25.439
RightUpLeg  -41.6377 -19.8526 -9.01512
RightLeg  63.3418 -5.26484 -11.9783
RightFoot  -12.5227 -0.0349084 4.18749
RightToes  0.000481921 0.542163 -0.142578
Spine  39.9423 0.377526 4.97123
Spine1  -8.76428 2.09063 -1.16766
HEad  -26.6788 0.779082 -2.77799
LeftShoulder1  7.86676 -13.5435 -39.9043
LeftArm  2.76015 -6.52129 -39.5178
LeftForeArm  -176.529 -59.3245 -164.432
LeftHand  -0.25398 0.0180481 5.50724
RightShoulder  5.17457 10.7625 30.3099
RightArm  2.93619 2.13416 43.9904
RightForeArm  163.33 62.6102 160.294
RightHand  -1.58893 4.58024 -18.6978
LeftUpLeg  -42.5772 21.8706 7.63312
LeftLeg  62.1525 4.51802 9.8371
LeftFoot  -18.0156 -0.243196 -6.01551
LeftToes  1.06245e-005 4.65868e-005 -8.65517e-006
1504
root  7.95692 34.1044 14.5329 -17.7746 80.7029 -21.5742
RightUpLeg  -39.9017 -19.0609 -10.7113
RightLeg  58.9856 -6.56149 -12.1549
RightFoot  -13.2884 0.0175966 6.30602
RightToes  0.000481921 0.542163 -0.142578
Spine  39.9539 0.417193 4.98717
Spine1  -8.69901 2.11302 -0.957738
HEad  -26.2582 0.651075 -2.96975
LeftShoulder1  7.96574 -13.6904 -40.076
LeftArm  2.93204 -6.53712 -39.0554
LeftForeArm  -176.911 -59.4645 -164.315
LeftHand  -0.25398 0.0180481 5.50724
RightShoulder  5.15394 10.8134 30.0317
RightArm  2.84561 2.40042 44.5442
RightForeArm  163.487 62.7407 160.205
RightHand  -1.57057 4.4496 -18.7217
LeftUpLeg  -42.6601 21.7349 8.31515
LeftLeg  62.7647 4.40004 9.85497
LeftFoot  -17.8555 -0.2899 -6.9713
LeftToes  1.06245e-005 4.65868e-005 -8.65517e-006
1505
root  7.92314 33.8083 15.1925 -12.8787 80.8997 -16.3931
RightUpLeg  -39.3908 -19.3457 -11.6387
RightLeg  58.1035 -5.20305 -9.38551
RightFoot  -13.4486 0.0982017 10.3149
RightToes  0.000481921 0.542163 -0.142578
Spine  39.8616 0.451747 4.8174
Spine1  -8.26691 2.03339 -0.480675
HEad  -25.7907 0.689376 -3.32418
LeftShoulder1  8.03089 -13.7743 -40.22
LeftArm  3.05988 -6.82682 -38.9731
LeftForeArm  -177.23 -59.7363 -164.121
LeftHand  -0.25398 0.0180481 5.50724
RightShoulder  5.07156 10.73 29.6578
RightArm  3.00354 2.92737 45.3457
RightForeArm  163.767 62.8913 160.112
RightHand  -1.54114 4.32197 -18.6122
LeftUpLeg  -42.8378 21.841 8.98918
LeftLeg  63.7729 3.94007 9.32039
LeftFoot  -17.3932 -0.335029 -8.29945
LeftToes  1.06245e-005 4.65868e-005 -8.65517e-006
1506
root  7.84891 33.5373 15.8672 -8.8015 80.8195 -11.9207
RightUpLeg  -40.4521 -20.2738 -11.2608
RightLeg  60.545 -4.13214 -8.41305
RightFoot  -13.6451 0.115919 10.4574
RightToes  0.000481921 0.542163 -0.142578
Spine  39.9492 0.252244 5.12164
Spine1  -7.666 1.9273 -0.39033
HEad  -25.3338 1.04173 -3.82782
LeftShoulder1  7.98305 -13.6943 -40.1611
LeftArm  3.22171 -7.33384 -39.3408
LeftForeArm  -177.13 -60.0348 -163.945
LeftHand  -0.25398 0.0180481 5.50724
RightShoulder  5.02923 10.652 29.5538
RightArm  3.40911 3.62128 46.0352
RightForeArm  163.78 63.1529 159.9
RightHand  -1.53071 4.29374 -18.5419
LeftUpLeg  -42.8263 22.2062 9.79448
LeftLeg  64.526 3.6936 9.09723
LeftFoot  -16.6822 -0.321885 -9.01584
LeftToes  1.06245e-005 4.65868e-005 -8.65517e-006
1507
root  7.75556 33.3667 16.5446 -6.0218 80.3805 -8.90865
RightUpLeg  -41.8552 -21.0078 -10.0602
RightLeg  63.0695 -3.81346 -8.70374
RightFoot  -14.8298 0.14689 8.14809
RightToes  0.000481921 0.542163 -0.142578
Spine  40.2399 -0.109467 5.84218
Spine1  -7.51025 1.84678 -0.733135
HEad  -24.7822 1.62209 -4.64126
LeftShoulder1  7.881 -13.5249 -40.0316
LeftArm  3.44461 -7.5359 -39.8341
LeftForeArm  -176.692 -60.1072 -163.938
LeftHand  -0.25398 0.0180481 5.50724
RightShoulder  5.10811 10.729 29.9212
RightArm  3.97163 4.01843 46.1762
RightForeArm  163.288 63.5347 159.532
RightHand  -1.5601 4.3811 -18.7244
LeftUpLeg  -42.5147 22.5202 10.8516
LeftLeg  64.6172 3.75436 9.2696
LeftFoot  -16.0687 -0.297198 -9.50288
LeftToes  1.06245e-005 4.65868e-005 -8.65517e-006
1508
root  7.67581 33.2951 17.2423 -3.42937 79.7841 -6.43968
RightUpLeg  -42.8329 -21.0881 -8.83742
RightLeg  64.1212 -3.56811 -8.59534
RightFoot  -16.2356 0.191033 7.00146
RightToes  0.000481921 0.542163 -0.142578
Spine  40.444 -0.380116 6.49121
Spine1  -7.9651 1.77058 -0.978002
HEad  -24.2463 2.20016 -5.69684
LeftShoulder1  7.8209 -13.4036 -40.0094
LeftArm  3.71329 -7.3317 -40.148
LeftForeArm  -176.24 -59.7508 -164.197
LeftHand  -0.25398 0.0180481 5.50724
RightShoulder  5.22243 10.8466 30.4326
RightArm  4.54053 3.88168 45.9483
RightForeArm  162.635 63.9317 159.124
RightHand  -1.61212 4.54906 -19.0173
LeftUpLeg  -42.1337 22.4838 12.1104
LeftLeg  64.1809 3.8302 9.25151
LeftFoot  -15.2167 -0.276143 -10.9225
LeftToes  1.06245e-005 4.65868e-005 -8.65517e-006
1509
root  7.59401 33.3121 17.9708 -0.289902 79.3425 -3.67525
RightUpLeg  -43.5951 -20.8544 -7.76765
RightLeg  64.5676 -3.43112 -8.47332
RightFoot  -17.0309 0.2282 6.91005
RightToes  0.000481921 0.542163 -0.142578
Spine  40.456 -0.47356 6.68343
Spine1  -8.58898 1.64718 -0.987425
HEad  -24.1035 2.57397 -6.68797
LeftShoulder1  7.79315 -13.3417 -40.0143
LeftArm  4.00279 -7.29486 -40.3448
LeftForeArm  -175.716 -59.0267 -164.677
LeftHand  -0.25398 0.0180481 5.50724
RightShoulder  5.23151 10.8056 30.6022
RightArm  4.98479 3.48018 45.9006
RightForeArm  162.245 64.163 158.88
RightHand  -1.63803 4.66222 -19.1056
LeftUpLeg  -42.1507 22.2556 13.0831
LeftLeg  63.5754 4.20021 9.78246
LeftFoot  -12.8941 -0.0895146 -12.2404
LeftToes  1.06245e-005 4.65868e-005 -8.65517e-006
1510
root  7.46734 33.4385 18.7158 2.73708 79.2532 -0.998779
RightUpLeg  -44.2119 -20.9285 -6.52957
RightLeg  64.9335 -3.59142 -8.98594
RightFoot  -17.6018 0.206385 5.96751
RightToes  0.000481921 0.542163 -0.142578
Spine  40.6029 -0.494339 6.36828
Spine1  -8.96803 1.4565 -1.00264
HEad  -24.5404 2.7522 -7.34417
LeftShoulder1  7.72775 -13.2759 -39.8168
LeftArm  4.29408 -7.84008 -40.7406
LeftForeArm  -174.853 -58.2829 -165.178
LeftHand  -0.25398 0.0180481 5.50724
RightShoulder  5.13911 10.6457 30.3592
RightArm  5.23969 3.20965 46.0595
RightForeArm  162.093 64.1163 158.905
RightHand  -1.61951 4.6141 -18.9834
LeftUpLeg  -42.8378 22.21 13.2261
LeftLeg  62.981 5.52476 12.2399
LeftFoot  -8.77024 0.273794 -10.5877
LeftToes  1.06245e-005 4.65868e-005 -8.65517e-006
1511
root  7.30415 33.6444 19.4328 4.20726 79.4902 0.30864
RightUpLeg  -44.3056 -21.4462 -5.01206
RightLeg  64.6953 -3.83354 -9.43199
RightFoot  -18.3528 0.14082 4.32692
RightToes  0.000481921 0.542163 -0.142578
Spine  41.0086 -0.516404 5.85441
Spine1  -9.15055 1.21843 -0.937964
HEad  -25.2374 2.93741 -7.55326
LeftShoulder1  7.62184 -13.2187 -39.3652
LeftArm  4.62379 -8.70198 -41.4952
LeftForeArm  -173.887 -57.9547 -165.44
LeftHand  -0.25398 0.0180481 5.50724
RightShoulder  5.06049 10.5661 30.0013
RightArm  5.27964 3.16501 45.9363
RightForeArm  161.955 63.8948 159.085
RightHand  -1.60341 4.54237 -18.9302
LeftUpLeg  -44.002 22.4387 12.6163
LeftLeg  62.5807 7.23472 15.4179
LeftFoot  -5.19676 0.375071 -6.24554
LeftToes  1.06245e-005 4.65868e-005 -8.65517e-006
1512
root  7.17096 33.8405 20.0772 4.05861 79.948 0.0305939
RightUpLeg  -43.9861 -22.0322 -3.49173
RightLeg  63.9236 -4.02848 -9.52294
RightFoot  -18.962 0.0946405 3.34176
RightToes  0.000481921 0.542163 -0.142578
Spine  41.2664 -0.488979 5.34355
Spine1  -9.22125 0.976763 -0.613918
HEad  -25.6883 3.24088 -7.36674
LeftShoulder1  7.53024 -13.2202 -38.8394
LeftArm  5.07118 -9.46725 -42.4195
LeftForeArm  -173.388 -58.2581 -165.31
LeftHand  -0.25398 0.0180481 5.50724
RightShoulder  5.04432 10.6181 29.7494
RightArm  5.06239 3.19531 45.3852
RightForeArm  161.834 63.7138 159.23
RightHand  -1.63153 4.64868 -19.0564
LeftUpLeg  -45.484 22.9659 11.3182
LeftLeg  62.7474 7.45781 15.9399
LeftFoot  -5.19536 0.247356 -4.04384
LeftToes  1.06245e-005 4.65868e-005 -8.65517e-006
